HIERARCHY
ROOT Hips
{
	OFFSET 0.000000 0.000000 0.000000
	CHANNELS 6 Xposition Yposition Zposition Zrotation Yrotation Xrotation 
	JOINT LHipJoint
	{
		OFFSET 0.000000 0.000000 0.000000
		CHANNELS 3 Zrotation Yrotation Xrotation
		JOINT LeftUpLeg
		{
			OFFSET 1.363060 -1.794630 0.839290
			CHANNELS 3 Zrotation Yrotation Xrotation
			JOINT LeftLeg
			{
				OFFSET 2.448110 -6.726130 0.000000
				CHANNELS 3 Zrotation Yrotation Xrotation
				JOINT LeftFoot
				{
					OFFSET 2.562200 -7.039590 0.000000
					CHANNELS 3 Zrotation Yrotation Xrotation
					JOINT LeftToeBase
					{
						OFFSET 0.157640 -0.433110 2.322550
						CHANNELS 3 Zrotation Yrotation Xrotation
						End Site
						{
							OFFSET 0.000000 0.000000 0.000000
						}
					}
				}
			}
		}
	}
	JOINT RHipJoint
	{
		OFFSET 0.000000 0.000000 0.000000
		CHANNELS 3 Zrotation Yrotation Xrotation
		JOINT RightUpLeg
		{
			OFFSET -1.305520 -1.794630 0.839290
			CHANNELS 3 Zrotation Yrotation Xrotation
			JOINT RightLeg
			{
				OFFSET -2.542530 -6.985550 0.000000
				CHANNELS 3 Zrotation Yrotation Xrotation
				JOINT RightFoot
				{
					OFFSET -2.568260 -7.056230 0.000000
					CHANNELS 3 Zrotation Yrotation Xrotation
					JOINT RightToeBase
					{
						OFFSET -0.164730 -0.452590 2.363150
						CHANNELS 3 Zrotation Yrotation Xrotation
						End Site
						{
							OFFSET 0.000000 0.000000 0.000000
						}
					}
				}
			}
		}
	}
	JOINT LowerBack
	{
		OFFSET 0.000000 0.000000 0.000000
		CHANNELS 3 Zrotation Yrotation Xrotation
		JOINT Spine
		{
			OFFSET 0.028270 2.035590 -0.193380
			CHANNELS 3 Zrotation Yrotation Xrotation
			JOINT Spine1
			{
				OFFSET 0.056720 2.048850 -0.042750
				CHANNELS 3 Zrotation Yrotation Xrotation
				JOINT Neck
				{
					OFFSET 0.000000 0.000000 0.000000
					CHANNELS 3 Zrotation Yrotation Xrotation
					JOINT Neck1
					{
						OFFSET -0.054170 1.746240 0.172020
						CHANNELS 3 Zrotation Yrotation Xrotation
						JOINT Head
						{
							OFFSET 0.104070 1.761360 -0.123970
							CHANNELS 3 Zrotation Yrotation Xrotation
							End Site
							{
								OFFSET 0.000000 0.000000 0.000000
							}
						}
					}
				}
				JOINT LeftShoulder
				{
					OFFSET 0.000000 0.000000 0.000000
					CHANNELS 3 Zrotation Yrotation Xrotation
					JOINT LeftArm
					{
						OFFSET 3.362410 1.200890 -0.311210
						CHANNELS 3 Zrotation Yrotation Xrotation
						JOINT LeftForeArm
						{
							OFFSET 4.983000 -0.000000 -0.000000
							CHANNELS 3 Zrotation Yrotation Xrotation
							JOINT LeftHand
							{
								OFFSET 3.483560 -0.000000 -0.000000
								CHANNELS 3 Zrotation Yrotation Xrotation
								JOINT LeftFingerBase
								{
									OFFSET 0.000000 0.000000 0.000000
									CHANNELS 3 Zrotation Yrotation Xrotation
									JOINT LeftHandIndex1
									{
										OFFSET 0.715260 -0.000000 -0.000000
										CHANNELS 3 Zrotation Yrotation Xrotation
										End Site
										{
											OFFSET 0.000000 0.000000 0.000000
										}
									}
								}
								JOINT LThumb
								{
									OFFSET 0.000000 0.000000 0.000000
									CHANNELS 3 Zrotation Yrotation Xrotation
									End Site
									{
										OFFSET 0.000000 0.000000 0.000000
									}
								}
							}
						}
					}
				}
				JOINT RightShoulder
				{
					OFFSET 0.000000 0.000000 0.000000
					CHANNELS 3 Zrotation Yrotation Xrotation
					JOINT RightArm
					{
						OFFSET -3.136600 1.374050 -0.404650
						CHANNELS 3 Zrotation Yrotation Xrotation
						JOINT RightForeArm
						{
							OFFSET -5.241900 -0.000000 -0.000000
							CHANNELS 3 Zrotation Yrotation Xrotation
							JOINT RightHand
							{
								OFFSET -3.444170 -0.000000 -0.000000
								CHANNELS 3 Zrotation Yrotation Xrotation
								JOINT RightFingerBase
								{
									OFFSET 0.000000 0.000000 0.000000
									CHANNELS 3 Zrotation Yrotation Xrotation
									JOINT RightHandIndex1
									{
										OFFSET -0.622530 -0.000000 -0.000000
										CHANNELS 3 Zrotation Yrotation Xrotation
										End Site
										{
											OFFSET 0.000000 0.000000 0.000000
										}
									}
								}
								JOINT RThumb
								{
									OFFSET 0.000000 0.000000 0.000000
									CHANNELS 3 Zrotation Yrotation Xrotation
									End Site
									{
										OFFSET 0.000000 0.000000 0.000000
									}
								}
							}
						}
					}
				}
			}
		}
	}
}
MOTION
Frames: 5
Frame Time: 0.008333
4.651713 20.819824 0.908166 22.834693 -86.247407 2.727278 -11.601188 3.360020 4.130136 -6.103312 1.303509 -28.146250 0.496902 0.949353 41.110793 2.556966 8.162182 38.589788 4.770600 0.000000 -65.695400 11.062593 -3.216049 1.553857 6.378592 -10.744142 -23.447523 0.325141 -1.566068 28.620098 -0.561059 2.588703 30.533971 1.735000 0.000001 -82.589301 0.338395 -1.445613 -7.062152 -0.106645 -1.611419 -5.034814 -3.398108 -1.583111 -4.326654 2.362864 -4.521136 2.777409 -1.452328 -0.267774 2.938192 0.000000 0.000000 0.000000 13.715474 1.865412 -3.686784 -20.428993 -47.792811 -47.903648 177.735897 -75.044113 179.667232 22.866043 -2.222414 -0.637489 -0.303763 0.889114 -0.000000 0.000000 0.000000 0.000000 0.000000 0.000000 0.000000 -4.637652 -4.747705 -5.767367 25.584589 61.211102 -39.387746 -176.813601 70.930404 179.657771 -25.143819 13.058666 -3.176847 0.248217 -0.963161 -0.000000 0.000000 0.000000 0.000000 0.000000 0.000000 0.000000 
4.431935 20.951285 0.895841 21.867220 -86.096024 3.757338 -11.573403 3.205217 3.955487 -6.514265 1.608186 -29.342141 0.444626 1.008326 41.068605 2.520181 7.989951 38.531505 4.669900 -0.000001 -65.792900 11.005306 -3.080003 1.386354 6.662303 -11.102852 -24.264344 0.470132 -1.564568 27.772907 -0.491519 2.326711 29.774702 1.499000 0.000000 -82.520400 0.452381 -1.485624 -6.655880 -0.100410 -1.650870 -4.891773 -3.474945 -1.621378 -4.043295 2.559660 -4.568048 2.704513 -1.510903 -0.268869 2.906853 0.000000 0.000000 0.000000 13.541304 2.107402 -3.474875 -21.304303 -46.312759 -46.949391 177.746519 -73.690269 179.668132 23.010335 -2.115196 -0.618469 -0.324035 0.882546 -0.000000 0.000000 0.000000 0.000000 0.000000 0.000000 0.000000 -4.416287 -5.050076 -5.646650 26.274997 60.320746 -38.652872 -176.686328 68.797474 179.656435 -25.467276 13.280040 -3.274528 0.271344 -0.971035 -0.000000 0.000000 0.000000 0.000000 0.000000 0.000000 0.000000 
4.210731 21.072244 0.884097 21.055719 -85.950580 4.695455 -11.536599 3.057906 3.812101 -6.948876 1.825178 -30.535720 0.392983 1.055621 40.696681 2.475371 7.917716 38.310427 4.633100 -0.000001 -65.617500 10.943114 -2.949282 1.248022 6.956204 -11.408062 -25.138777 0.637063 -1.552201 26.777392 -0.413336 2.101357 28.980237 1.282300 -0.000000 -82.129000 0.564970 -1.514926 -6.314948 -0.094122 -1.681194 -4.759972 -3.551449 -1.650689 -3.756748 2.762886 -4.622874 2.613829 -1.570138 -0.269773 2.871165 0.000000 0.000000 0.000000 13.352751 2.332325 -3.270398 -22.222608 -44.882425 -45.903556 177.784338 -72.538673 179.669317 23.140221 -2.006207 -0.598238 -0.343629 0.875622 -0.000000 0.000000 0.000000 0.000000 0.000000 0.000000 0.000000 -4.194593 -5.326004 -5.506625 27.011060 59.382039 -37.839229 -176.609232 66.864168 179.656065 -25.727062 13.513530 -3.368199 0.294530 -0.979455 -0.000000 0.000000 0.000000 0.000000 0.000000 0.000000 0.000000 
3.988016 21.181689 0.872775 20.419123 -85.816468 5.518018 -11.490170 2.919210 3.696059 -7.409390 1.951233 -31.712047 0.340736 1.092451 40.024380 2.423237 7.963245 37.900937 4.670900 -0.000000 -65.471000 10.876366 -2.822278 1.143248 7.252323 -11.627260 -26.060522 0.821825 -1.527584 25.659798 -0.331381 1.881799 28.153936 1.067300 -0.000000 -81.849599 0.674105 -1.533411 -6.037342 -0.088627 -1.702176 -4.640317 -3.629301 -1.670660 -3.470559 2.968908 -4.690752 2.503595 -1.629681 -0.270479 2.830738 0.000000 0.000000 0.000000 13.151600 2.535742 -3.072489 -23.150836 -43.488585 -44.776388 177.844587 -71.577350 179.670759 23.260161 -1.891900 -0.576197 -0.362491 0.868183 -0.000000 0.000000 0.000000 0.000000 0.000000 0.000000 0.000000 -3.972924 -5.574095 -5.350957 27.794390 58.402775 -36.956498 -176.580960 65.156994 179.656632 -25.920907 13.743410 -3.453263 0.317107 -0.987972 -0.000000 0.000000 0.000000 0.000000 0.000000 0.000000 0.000000 
3.764224 21.278961 0.861763 19.951506 -85.695717 6.214257 -11.434379 2.790554 3.599237 -7.895271 1.996619 -32.854282 0.285021 1.122012 39.093859 2.361907 8.108659 37.266612 4.766200 0.000000 -65.186000 10.805617 -2.696836 1.070134 7.538982 -11.749555 -27.014703 1.021114 -1.491194 24.464550 -0.247171 1.670795 27.270098 0.856200 -0.000000 -81.492900 0.778988 -1.542274 -5.810289 -0.084535 -1.714635 -4.531717 -3.710110 -1.681895 -3.189365 3.173831 -4.775649 2.374242 -1.689637 -0.271029 2.785678 0.000000 0.000000 0.000000 12.942307 2.711192 -2.880206 -24.061756 -42.112016 -43.579458 177.922587 -70.785640 179.672413 23.375081 -1.775697 -0.553249 -0.380682 0.860215 -0.000000 0.000000 0.000000 0.000000 0.000000 0.000000 0.000000 -3.749259 -5.794073 -5.183996 28.618099 57.393105 -36.018173 -176.597373 63.694578 179.658063 -26.052849 13.953094 -3.525620 0.338486 -0.995993 -0.000000 0.000000 0.000000 0.000000 0.000000 0.000000 0.000000 
